<svg width="24" height="64" viewBox="0 0 24 64" fill="none" xmlns="http://www.w3.org/2000/svg">
<path d="M7.233 32.315H6V25.16H7.233V28.211H16.755L15.027 25.367L16.107 24.71L18.393 28.4V29.723H7.233V32.315ZM18.573 38.104C18.573 39.454 18.117 40.465 17.205 41.137C16.293 41.809 15.06 42.145 13.506 42.145C12.252 42.145 11.193 42.016 10.329 41.758C9.465 41.506 8.742 41.113 8.16 40.579C7.578 40.045 7.089 39.361 6.693 38.527C6.297 37.693 5.94 36.697 5.622 35.539L6.774 35.188C7.092 36.334 7.47 37.291 7.908 38.059C8.346 38.833 8.895 39.424 9.555 39.832C10.221 40.24 11.043 40.474 12.021 40.534C11.583 40.174 11.226 39.757 10.95 39.283C10.68 38.809 10.545 38.26 10.545 37.636C10.545 36.946 10.701 36.334 11.013 35.8C11.331 35.272 11.784 34.855 12.372 34.549C12.966 34.243 13.677 34.09 14.505 34.09C15.387 34.09 16.131 34.27 16.737 34.63C17.343 34.99 17.799 35.473 18.105 36.079C18.417 36.685 18.573 37.36 18.573 38.104ZM14.451 35.656C13.503 35.656 12.816 35.854 12.39 36.25C11.964 36.652 11.751 37.207 11.751 37.915C11.751 38.473 11.895 38.962 12.183 39.382C12.471 39.808 12.864 40.204 13.362 40.57C14.82 40.552 15.849 40.342 16.449 39.94C17.049 39.538 17.349 38.926 17.349 38.104C17.349 36.472 16.383 35.656 14.451 35.656ZM18.573 47.9969C18.573 49.3469 18.117 50.3579 17.205 51.0299C16.293 51.7019 15.06 52.0379 13.506 52.0379C12.252 52.0379 11.193 51.9089 10.329 51.6509C9.465 51.3989 8.742 51.0059 8.16 50.4719C7.578 49.9379 7.089 49.2539 6.693 48.4199C6.297 47.5859 5.94 46.5899 5.622 45.4319L6.774 45.0809C7.092 46.2269 7.47 47.1839 7.908 47.9519C8.346 48.7259 8.895 49.3169 9.555 49.7249C10.221 50.1329 11.043 50.3669 12.021 50.4269C11.583 50.0669 11.226 49.6499 10.95 49.1759C10.68 48.7019 10.545 48.1529 10.545 47.5289C10.545 46.8389 10.701 46.2269 11.013 45.6929C11.331 45.1649 11.784 44.7479 12.372 44.4419C12.966 44.1359 13.677 43.9829 14.505 43.9829C15.387 43.9829 16.131 44.1629 16.737 44.5229C17.343 44.8829 17.799 45.3659 18.105 45.9719C18.417 46.5779 18.573 47.2529 18.573 47.9969ZM14.451 45.5489C13.503 45.5489 12.816 45.7469 12.39 46.1429C11.964 46.5449 11.751 47.0999 11.751 47.8079C11.751 48.3659 11.895 48.8549 12.183 49.2749C12.471 49.7009 12.864 50.0969 13.362 50.4629C14.82 50.4449 15.849 50.2349 16.449 49.8329C17.049 49.4309 17.349 48.8189 17.349 47.9969C17.349 46.3649 16.383 45.5489 14.451 45.5489ZM18.393 61.4449L17.187 61.2199L17.187 56.3239H13.281C13.479 56.7019 13.617 57.0589 13.695 57.3949C13.773 57.7369 13.812 58.0939 13.812 58.4659C13.812 59.4739 13.473 60.2899 12.795 60.9139C12.117 61.5379 11.16 61.8499 9.924 61.8499C9.096 61.8499 8.373 61.6759 7.755 61.3279C7.137 60.9859 6.654 60.4999 6.306 59.8699C5.964 59.2459 5.793 58.5079 5.793 57.6559C5.793 56.9119 5.925 56.2459 6.189 55.6579C6.453 55.0759 6.819 54.5449 7.287 54.0649L8.187 55.0009C7.425 55.7389 7.044 56.6299 7.044 57.6739C7.044 58.4899 7.29 59.1259 7.782 59.5819C8.28 60.0379 9.009 60.2659 9.969 60.2659C10.635 60.2659 11.16 60.1669 11.544 59.9689C11.928 59.7709 12.201 59.5009 12.363 59.1589C12.531 58.8229 12.615 58.4479 12.615 58.0339C12.615 57.6679 12.579 57.3439 12.507 57.0619C12.435 56.7799 12.333 56.4589 12.201 56.0989V54.8839H18.393L18.393 61.4449Z" fill="black"/>
<circle cx="12" cy="5" r="5" fill="black"/>
</svg>
