<svg width="90" height="53" viewBox="0 0 90 53" fill="none" xmlns="http://www.w3.org/2000/svg">
<path d="M7.11 47L2.745 36.101C2.751 36.281 2.772 36.623 2.808 37.127C2.844 37.625 2.877 38.201 2.907 38.855C2.937 39.503 2.952 40.148 2.952 40.79V47H1.503V34.607H3.618L8.055 45.551C8.049 45.377 8.028 45.059 7.992 44.597C7.956 44.129 7.923 43.568 7.893 42.914C7.863 42.254 7.848 41.552 7.848 40.808V34.607H9.297V47H7.11ZM18.488 44.93C18.488 45.314 18.551 45.593 18.677 45.767C18.803 45.941 18.998 46.067 19.262 46.145L18.893 47.207C18.485 47.153 18.128 47.024 17.822 46.82C17.516 46.61 17.294 46.295 17.156 45.875C16.814 46.313 16.385 46.646 15.869 46.874C15.359 47.096 14.798 47.207 14.186 47.207C13.238 47.207 12.491 46.94 11.945 46.406C11.399 45.872 11.126 45.164 11.126 44.282C11.126 43.304 11.507 42.554 12.269 42.032C13.031 41.51 14.132 41.249 15.572 41.249H16.967V40.457C16.967 39.773 16.766 39.29 16.364 39.008C15.968 38.72 15.416 38.576 14.708 38.576C14.396 38.576 14.03 38.615 13.61 38.693C13.19 38.765 12.734 38.888 12.242 39.062L11.846 37.919C12.422 37.703 12.965 37.55 13.475 37.46C13.991 37.37 14.48 37.325 14.942 37.325C16.118 37.325 17.003 37.601 17.597 38.153C18.191 38.705 18.488 39.449 18.488 40.385V44.93ZM14.573 46.055C15.041 46.055 15.485 45.938 15.905 45.704C16.331 45.464 16.685 45.134 16.967 44.714V42.275H15.599C14.555 42.275 13.817 42.455 13.385 42.815C12.959 43.175 12.746 43.658 12.746 44.264C12.746 45.458 13.355 46.055 14.573 46.055ZM25.1859 33.086C25.5219 33.086 25.7889 33.188 25.9869 33.392C26.1909 33.596 26.2929 33.845 26.2929 34.139C26.2929 34.445 26.1909 34.703 25.9869 34.913C25.7889 35.117 25.5219 35.219 25.1859 35.219C24.8679 35.219 24.6069 35.117 24.4029 34.913C24.1989 34.703 24.0969 34.445 24.0969 34.139C24.0969 33.845 24.1989 33.596 24.4029 33.392C24.6069 33.188 24.8679 33.086 25.1859 33.086ZM26.3919 37.523V45.803H29.0649V47H21.9549V45.803H24.8799V38.72H22.0449V37.523H26.3919ZM34.7099 45.956C35.4419 45.956 36.0179 45.821 36.4379 45.551C36.8579 45.281 37.0679 44.915 37.0679 44.453C37.0679 44.171 37.0139 43.925 36.9059 43.715C36.8039 43.505 36.5909 43.316 36.2669 43.148C35.9429 42.974 35.4449 42.803 34.7729 42.635C34.1189 42.473 33.5489 42.287 33.0629 42.077C32.5829 41.861 32.2079 41.582 31.9379 41.24C31.6739 40.898 31.5419 40.454 31.5419 39.908C31.5419 39.11 31.8749 38.48 32.5409 38.018C33.2069 37.556 34.0739 37.325 35.1419 37.325C35.9039 37.325 36.5669 37.427 37.1309 37.631C37.7009 37.835 38.1839 38.081 38.5799 38.369L37.9139 39.395C37.5599 39.149 37.1639 38.948 36.7259 38.792C36.2939 38.63 35.7719 38.549 35.1599 38.549C34.4159 38.549 33.8879 38.666 33.5759 38.9C33.2639 39.128 33.1079 39.425 33.1079 39.791C33.1079 40.073 33.1829 40.307 33.3329 40.493C33.4889 40.673 33.7499 40.835 34.1159 40.979C34.4819 41.123 34.9859 41.282 35.6279 41.456C36.2459 41.624 36.7859 41.822 37.2479 42.05C37.7099 42.278 38.0669 42.578 38.3189 42.95C38.5769 43.316 38.7059 43.793 38.7059 44.381C38.7059 45.053 38.5139 45.599 38.1299 46.019C37.7459 46.433 37.2479 46.736 36.6359 46.928C36.0299 47.114 35.3879 47.207 34.7099 47.207C33.8519 47.207 33.1199 47.084 32.5139 46.838C31.9139 46.586 31.4099 46.283 31.0019 45.929L31.8659 44.93C32.2379 45.236 32.6639 45.485 33.1439 45.677C33.6299 45.863 34.1519 45.956 34.7099 45.956ZM44.6029 45.956C45.3349 45.956 45.9109 45.821 46.3309 45.551C46.7509 45.281 46.9609 44.915 46.9609 44.453C46.9609 44.171 46.9069 43.925 46.7989 43.715C46.6969 43.505 46.4839 43.316 46.1599 43.148C45.8359 42.974 45.3379 42.803 44.6659 42.635C44.0119 42.473 43.4419 42.287 42.9559 42.077C42.4759 41.861 42.1009 41.582 41.8309 41.24C41.5669 40.898 41.4349 40.454 41.4349 39.908C41.4349 39.11 41.7679 38.48 42.4339 38.018C43.0999 37.556 43.9669 37.325 45.0349 37.325C45.7969 37.325 46.4599 37.427 47.0239 37.631C47.5939 37.835 48.0769 38.081 48.4729 38.369L47.8069 39.395C47.4529 39.149 47.0569 38.948 46.6189 38.792C46.1869 38.63 45.6649 38.549 45.0529 38.549C44.3089 38.549 43.7809 38.666 43.4689 38.9C43.1569 39.128 43.0009 39.425 43.0009 39.791C43.0009 40.073 43.0759 40.307 43.2259 40.493C43.3819 40.673 43.6429 40.835 44.0089 40.979C44.3749 41.123 44.8789 41.282 45.5209 41.456C46.1389 41.624 46.6789 41.822 47.1409 42.05C47.6029 42.278 47.9599 42.578 48.2119 42.95C48.4699 43.316 48.5989 43.793 48.5989 44.381C48.5989 45.053 48.4069 45.599 48.0229 46.019C47.6389 46.433 47.1409 46.736 46.5289 46.928C45.9229 47.114 45.2809 47.207 44.6029 47.207C43.7449 47.207 43.0129 47.084 42.4069 46.838C41.8069 46.586 41.3029 46.283 40.8949 45.929L41.7589 44.93C42.1309 45.236 42.5569 45.485 43.0369 45.677C43.5229 45.863 44.0449 45.956 44.6029 45.956ZM58.0598 44.93C58.0598 45.314 58.1228 45.593 58.2488 45.767C58.3748 45.941 58.5698 46.067 58.8338 46.145L58.4648 47.207C58.0568 47.153 57.6998 47.024 57.3938 46.82C57.0878 46.61 56.8658 46.295 56.7278 45.875C56.3858 46.313 55.9568 46.646 55.4408 46.874C54.9308 47.096 54.3698 47.207 53.7578 47.207C52.8098 47.207 52.0628 46.94 51.5168 46.406C50.9708 45.872 50.6978 45.164 50.6978 44.282C50.6978 43.304 51.0788 42.554 51.8408 42.032C52.6028 41.51 53.7038 41.249 55.1438 41.249H56.5388V40.457C56.5388 39.773 56.3378 39.29 55.9358 39.008C55.5398 38.72 54.9878 38.576 54.2798 38.576C53.9678 38.576 53.6018 38.615 53.1818 38.693C52.7618 38.765 52.3058 38.888 51.8138 39.062L51.4178 37.919C51.9938 37.703 52.5368 37.55 53.0468 37.46C53.5628 37.37 54.0518 37.325 54.5138 37.325C55.6898 37.325 56.5748 37.601 57.1688 38.153C57.7628 38.705 58.0598 39.449 58.0598 40.385V44.93ZM54.1448 46.055C54.6128 46.055 55.0568 45.938 55.4768 45.704C55.9028 45.464 56.2568 45.134 56.5388 44.714V42.275H55.1708C54.1268 42.275 53.3888 42.455 52.9568 42.815C52.5308 43.175 52.3178 43.658 52.3178 44.264C52.3178 45.458 52.9268 46.055 54.1448 46.055ZM61.1668 47V37.523H62.4538L62.5708 38.837C62.9548 38.351 63.4348 37.979 64.0108 37.721C64.5868 37.457 65.1508 37.325 65.7028 37.325C66.6328 37.325 67.3078 37.571 67.7278 38.063C68.1538 38.555 68.3668 39.239 68.3668 40.115V47H66.8548V41.231C66.8548 40.583 66.8188 40.061 66.7468 39.665C66.6748 39.269 66.5218 38.978 66.2878 38.792C66.0598 38.606 65.7088 38.513 65.2348 38.513C64.8628 38.513 64.5118 38.594 64.1818 38.756C63.8578 38.918 63.5668 39.122 63.3088 39.368C63.0568 39.608 62.8468 39.851 62.6788 40.097V47H61.1668ZM75.3438 45.902C75.8178 45.902 76.2588 45.827 76.6668 45.677C77.0808 45.521 77.4618 45.32 77.8098 45.074L78.5478 46.064C78.1338 46.418 77.6358 46.697 77.0538 46.901C76.4718 47.105 75.9018 47.207 75.3438 47.207C74.4018 47.207 73.5978 47.006 72.9318 46.604C72.2718 46.196 71.7678 45.626 71.4198 44.894C71.0718 44.156 70.8978 43.292 70.8978 42.302C70.8978 41.354 71.0718 40.505 71.4198 39.755C71.7678 39.005 72.2748 38.414 72.9408 37.982C73.6068 37.544 74.4138 37.325 75.3618 37.325C76.5678 37.325 77.6238 37.691 78.5298 38.423L77.7918 39.431C76.9698 38.867 76.1538 38.585 75.3438 38.585C74.5278 38.585 73.8558 38.894 73.3278 39.512C72.7998 40.124 72.5358 41.054 72.5358 42.302C72.5358 43.568 72.7998 44.486 73.3278 45.056C73.8558 45.62 74.5278 45.902 75.3438 45.902ZM82.1408 42.797C82.1828 43.895 82.4708 44.696 83.0048 45.2C83.5448 45.698 84.1808 45.947 84.9128 45.947C85.3988 45.947 85.8368 45.875 86.2268 45.731C86.6168 45.587 87.0218 45.374 87.4418 45.092L88.1528 46.091C87.7148 46.439 87.2108 46.712 86.6408 46.91C86.0708 47.108 85.4888 47.207 84.8948 47.207C83.9708 47.207 83.1848 47 82.5368 46.586C81.8948 46.172 81.4028 45.596 81.0608 44.858C80.7248 44.114 80.5568 43.253 80.5568 42.275C80.5568 41.315 80.7248 40.463 81.0608 39.719C81.4028 38.975 81.8828 38.39 82.5008 37.964C83.1248 37.538 83.8568 37.325 84.6968 37.325C85.8908 37.325 86.8298 37.739 87.5138 38.567C88.2038 39.395 88.5488 40.529 88.5488 41.969C88.5488 42.131 88.5428 42.284 88.5308 42.428C88.5248 42.572 88.5188 42.695 88.5128 42.797H82.1408ZM84.7148 38.567C84.0128 38.567 83.4248 38.816 82.9508 39.314C82.4768 39.812 82.2098 40.583 82.1498 41.627H87.0908C87.0728 40.613 86.8508 39.851 86.4248 39.341C85.9988 38.825 85.4288 38.567 84.7148 38.567Z" fill="black"/>
<path d="M4.041 6.885V11.223H8.901V12.483H4.041V18H2.493V5.607H9.792L9.603 6.885H4.041ZM12.89 13.797C12.932 14.895 13.22 15.696 13.754 16.2C14.294 16.698 14.93 16.947 15.662 16.947C16.148 16.947 16.586 16.875 16.976 16.731C17.366 16.587 17.771 16.374 18.191 16.092L18.902 17.091C18.464 17.439 17.96 17.712 17.39 17.91C16.82 18.108 16.238 18.207 15.644 18.207C14.72 18.207 13.934 18 13.286 17.586C12.644 17.172 12.152 16.596 11.81 15.858C11.474 15.114 11.306 14.253 11.306 13.275C11.306 12.315 11.474 11.463 11.81 10.719C12.152 9.975 12.632 9.39 13.25 8.964C13.874 8.538 14.606 8.325 15.446 8.325C16.64 8.325 17.579 8.739 18.263 9.567C18.953 10.395 19.298 11.529 19.298 12.969C19.298 13.131 19.292 13.284 19.28 13.428C19.274 13.572 19.268 13.695 19.262 13.797H12.89ZM15.464 9.567C14.762 9.567 14.174 9.816 13.7 10.314C13.226 10.812 12.959 11.583 12.899 12.627H17.84C17.822 11.613 17.6 10.851 17.174 10.341C16.748 9.825 16.178 9.567 15.464 9.567ZM29.4969 8.523L26.0499 18H24.2949L20.8749 8.523H22.4769L25.2219 16.623L27.9309 8.523H29.4969ZM35.0789 15.039C35.4929 15.039 35.8379 15.18 36.1139 15.462C36.3959 15.744 36.5369 16.083 36.5369 16.479C36.5369 16.695 36.5099 16.914 36.4559 17.136C36.4079 17.358 36.3179 17.61 36.1859 17.892L34.7279 21.231H33.3599L34.2239 17.676C33.8339 17.394 33.6389 16.995 33.6389 16.479C33.6389 16.083 33.7769 15.744 34.0529 15.462C34.3289 15.18 34.6709 15.039 35.0789 15.039ZM58.7798 16.767V18H51.6248V16.767H54.6758V7.245L51.8318 8.973L51.1748 7.893L54.8648 5.607H56.1878V16.767H58.7798ZM68.6728 16.767V18H61.5178V16.767H64.5688V7.245L61.7248 8.973L61.0678 7.893L64.7578 5.607H66.0808V16.767H68.6728Z" fill="black"/>
</svg>
