<svg width="18" height="18" viewBox="0 0 18 18" fill="none" xmlns="http://www.w3.org/2000/svg">
<g clip-path="url(#clip0)">
<path d="M9.22668 0.00375168C5.57125 -0.119438 2.56934 2.80709 2.56934 6.43469C2.56934 10.5516 6.52018 13.5394 8.73462 17.8362C8.84705 18.0544 9.1611 18.0547 9.27392 17.8365C11.2772 13.9703 14.7011 11.3777 15.3356 7.65299C15.9926 3.79863 13.1343 0.135493 9.22668 0.00375168ZM9.00395 9.80519C7.14251 9.80519 5.63345 8.2961 5.63345 6.43469C5.63345 4.57328 7.14254 3.06419 9.00395 3.06419C10.8654 3.06419 12.3745 4.57328 12.3745 6.43469C12.3745 8.2961 10.8654 9.80519 9.00395 9.80519Z" fill="#91FA8E"/>
</g>
<defs>
<clipPath id="clip0">
<rect width="18" height="18" fill="white"/>
</clipPath>
</defs>
</svg>
