<svg width="79" height="24" viewBox="0 0 79 24" fill="none" xmlns="http://www.w3.org/2000/svg">
<path d="M38.026 9.414C38.026 10.38 37.819 11.154 37.405 11.736C36.997 12.318 36.433 12.741 35.713 13.005C34.993 13.269 34.165 13.401 33.229 13.401H31.645V18H30.079V5.607H33.247C34.723 5.607 35.887 5.916 36.739 6.534C37.597 7.152 38.026 8.112 38.026 9.414ZM36.352 9.432C36.352 8.796 36.226 8.289 35.974 7.911C35.722 7.533 35.374 7.263 34.93 7.101C34.492 6.933 33.994 6.849 33.436 6.849H31.645V12.141H33.373C33.949 12.141 34.462 12.063 34.912 11.907C35.362 11.751 35.713 11.478 35.965 11.088C36.223 10.692 36.352 10.14 36.352 9.432ZM46.488 15.93C46.488 16.314 46.551 16.593 46.677 16.767C46.803 16.941 46.998 17.067 47.262 17.145L46.893 18.207C46.485 18.153 46.128 18.024 45.822 17.82C45.516 17.61 45.294 17.295 45.156 16.875C44.814 17.313 44.385 17.646 43.869 17.874C43.359 18.096 42.798 18.207 42.186 18.207C41.238 18.207 40.491 17.94 39.945 17.406C39.399 16.872 39.126 16.164 39.126 15.282C39.126 14.304 39.507 13.554 40.269 13.032C41.031 12.51 42.132 12.249 43.572 12.249H44.967V11.457C44.967 10.773 44.766 10.29 44.364 10.008C43.968 9.72 43.416 9.576 42.708 9.576C42.396 9.576 42.03 9.615 41.61 9.693C41.19 9.765 40.734 9.888 40.242 10.062L39.846 8.919C40.422 8.703 40.965 8.55 41.475 8.46C41.991 8.37 42.48 8.325 42.942 8.325C44.118 8.325 45.003 8.601 45.597 9.153C46.191 9.705 46.488 10.449 46.488 11.385V15.93ZM42.573 17.055C43.041 17.055 43.485 16.938 43.905 16.704C44.331 16.464 44.685 16.134 44.967 15.714V13.275H43.599C42.555 13.275 41.817 13.455 41.385 13.815C40.959 14.175 40.746 14.658 40.746 15.264C40.746 16.458 41.355 17.055 42.573 17.055ZM49.6849 18V16.839H51.1609V9.684H49.6849V8.523H52.3129L52.5919 10.764C52.9579 9.984 53.4019 9.381 53.9239 8.955C54.4459 8.529 55.1359 8.316 55.9939 8.316C56.2579 8.316 56.4919 8.337 56.6959 8.379C56.9059 8.415 57.1189 8.463 57.3349 8.523L57.1189 11.727H55.8769V9.711C55.8529 9.711 55.8259 9.711 55.7959 9.711C54.3439 9.711 53.3029 10.749 52.6729 12.825V16.839H54.5989V18H49.6849ZM63.0789 4.086C63.4149 4.086 63.6819 4.188 63.8799 4.392C64.0839 4.596 64.1859 4.845 64.1859 5.139C64.1859 5.445 64.0839 5.703 63.8799 5.913C63.6819 6.117 63.4149 6.219 63.0789 6.219C62.7609 6.219 62.4999 6.117 62.2959 5.913C62.0919 5.703 61.9899 5.445 61.9899 5.139C61.9899 4.845 62.0919 4.596 62.2959 4.392C62.4999 4.188 62.7609 4.086 63.0789 4.086ZM64.2849 8.523V16.803H66.9579V18H59.8479V16.803H62.7729V9.72H59.9379V8.523H64.2849ZM72.6029 16.956C73.3349 16.956 73.9109 16.821 74.3309 16.551C74.7509 16.281 74.9609 15.915 74.9609 15.453C74.9609 15.171 74.9069 14.925 74.7989 14.715C74.6969 14.505 74.4839 14.316 74.1599 14.148C73.8359 13.974 73.3379 13.803 72.6659 13.635C72.0119 13.473 71.4419 13.287 70.9559 13.077C70.4759 12.861 70.1009 12.582 69.8309 12.24C69.5669 11.898 69.4349 11.454 69.4349 10.908C69.4349 10.11 69.7679 9.48 70.4339 9.018C71.0999 8.556 71.9669 8.325 73.0349 8.325C73.7969 8.325 74.4599 8.427 75.0239 8.631C75.5939 8.835 76.0769 9.081 76.4729 9.369L75.8069 10.395C75.4529 10.149 75.0569 9.948 74.6189 9.792C74.1869 9.63 73.6649 9.549 73.0529 9.549C72.3089 9.549 71.7809 9.666 71.4689 9.9C71.1569 10.128 71.0009 10.425 71.0009 10.791C71.0009 11.073 71.0759 11.307 71.2259 11.493C71.3819 11.673 71.6429 11.835 72.0089 11.979C72.3749 12.123 72.8789 12.282 73.5209 12.456C74.1389 12.624 74.6789 12.822 75.1409 13.05C75.6029 13.278 75.9599 13.578 76.2119 13.95C76.4699 14.316 76.5989 14.793 76.5989 15.381C76.5989 16.053 76.4069 16.599 76.0229 17.019C75.6389 17.433 75.1409 17.736 74.5289 17.928C73.9229 18.114 73.2809 18.207 72.6029 18.207C71.7449 18.207 71.0129 18.084 70.4069 17.838C69.8069 17.586 69.3029 17.283 68.8949 16.929L69.7589 15.93C70.1309 16.236 70.5569 16.485 71.0369 16.677C71.5229 16.863 72.0449 16.956 72.6029 16.956Z" fill="black"/>
<g clip-path="url(#clip0)">
<path d="M9.22668 3.00375C5.57125 2.88056 2.56934 5.80709 2.56934 9.43469C2.56934 13.5516 6.52018 16.5394 8.73462 20.8362C8.84705 21.0544 9.1611 21.0547 9.27392 20.8365C11.2772 16.9703 14.7011 14.3777 15.3356 10.653C15.9926 6.79863 13.1343 3.13549 9.22668 3.00375ZM9.00395 12.8052C7.14251 12.8052 5.63345 11.2961 5.63345 9.43469C5.63345 7.57328 7.14254 6.06419 9.00395 6.06419C10.8654 6.06419 12.3745 7.57328 12.3745 9.43469C12.3745 11.2961 10.8654 12.8052 9.00395 12.8052Z" fill="black"/>
</g>
<defs>
<clipPath id="clip0">
<rect y="3" width="18" height="18" fill="white"/>
</clipPath>
</defs>
</svg>
